<svg version="1.1" xmlns="http://www.w3.org/2000/svg" xmlns:xlink="http://www.w3.org/1999/xlink" width="512" height="512" viewBox="0,0,256,256"><g fill="#eabb59" fill-rule="nonzero" stroke="none" stroke-width="1" stroke-linecap="butt" stroke-linejoin="miter" stroke-miterlimit="10" stroke-dasharray="" stroke-dashoffset="0" font-family="none" font-weight="none" font-size="none" text-anchor="none" style="mix-blend-mode: normal"><g transform="translate(0,0.58515) scale(10.66667,10.66667)"><path d="M2.246,5.316c0.33897,-0.39302 0.73748,-0.73046 1.181,-1l6,-3.6c1.58262,-0.95295 3.56238,-0.95295 5.145,0l6,3.6c0.44401,0.26927 0.84289,0.60673 1.182,1l-9.754,5.853zM13,12.9v10.989c0.55423,-0.10941 1.08582,-0.3123 1.572,-0.6l6,-3.6c1.50273,-0.90763 2.4231,-2.53345 2.428,-4.289v-6.8c-0.00356,-0.52509 -0.09065,-1.04628 -0.258,-1.544zM11,12.9l-9.742,-5.844c-0.16735,0.49772 -0.25444,1.01891 -0.258,1.544v6.8c0.00503,1.75499 0.92496,3.38031 2.427,4.288l6,3.6c0.48653,0.28772 1.01845,0.49061 1.573,0.6z"></path></g></g></svg>