<svg version="1.1" xmlns="http://www.w3.org/2000/svg" xmlns:xlink="http://www.w3.org/1999/xlink" width="512" height="512" viewBox="0,0,256,256"><g fill="#616161" fill-rule="nonzero" stroke="none" stroke-width="1" stroke-linecap="butt" stroke-linejoin="miter" stroke-miterlimit="10" stroke-dasharray="" stroke-dashoffset="0" font-family="none" font-weight="none" font-size="none" text-anchor="none" style="mix-blend-mode: normal"><g transform="translate(-0.16357,0.504) scale(10.66667,10.66667)"><path d="M12.016,5.731l-8.991,-3.007l7.402,-2.467c1.026,-0.342 2.136,-0.342 3.162,0l7.419,2.473zM8.834,11.354l2.175,-3.624l-7.946,-2.649c-0.617,-0.206 -1.293,0.045 -1.628,0.602l-1.127,1.88c-0.667,1.112 -0.133,2.555 1.097,2.965l5.081,1.694c0.889,0.296 1.865,-0.065 2.347,-0.868zM3.008,2.718v0.011l0.017,-0.006l-0.017,-0.006zM11.008,23.905v-12.288l-0.46,0.766c-0.742,1.236 -2.044,1.945 -3.415,1.945c-0.425,0 -0.856,-0.067 -1.28,-0.209l-3.845,-1.281v4.558c0,2.152 1.377,4.063 3.419,4.743l4.435,1.478c0.374,0.121 0.758,0.22 1.146,0.287zM23.728,7.596l-1.148,-1.913c-0.334,-0.557 -1.011,-0.808 -1.628,-0.602l-7.945,2.648l2.175,3.624c0.482,0.804 1.458,1.165 2.347,0.868l5.118,-1.706c1.211,-0.404 1.737,-1.825 1.08,-2.92zM16.883,14.329c-1.371,0 -2.673,-0.708 -3.415,-1.945l-0.46,-0.766v12.282c0.422,-0.074 0.84,-0.182 1.236,-0.314h0.01l4.335,-1.446c2.042,-0.681 3.419,-2.591 3.419,-4.743v-4.559l-3.845,1.282c-0.424,0.142 -0.855,0.209 -1.28,0.209z"></path></g></g></svg>