<svg version="1.1" xmlns="http://www.w3.org/2000/svg" xmlns:xlink="http://www.w3.org/1999/xlink" width="512" height="512" viewBox="0,0,256,256"><g fill="#212121" fill-rule="nonzero" stroke="none" stroke-width="1" stroke-linecap="butt" stroke-linejoin="miter" stroke-miterlimit="10" stroke-dasharray="" stroke-dashoffset="0" font-family="none" font-weight="none" font-size="none" text-anchor="none" style="mix-blend-mode: normal"><g transform="scale(0.5,0.5)"><g><path d="M85.333,0h64c47.128,0 85.333,38.205 85.333,85.333v64c0,47.128 -38.205,85.333 -85.333,85.333h-64c-47.128,0.001 -85.333,-38.204 -85.333,-85.333v-64c0,-47.128 38.205,-85.333 85.333,-85.333z"></path><path d="M362.667,0h64c47.128,0 85.333,38.205 85.333,85.333v64c0,47.128 -38.205,85.333 -85.333,85.333h-64c-47.128,0 -85.333,-38.205 -85.333,-85.333v-64c-0.001,-47.128 38.204,-85.333 85.333,-85.333z"></path><path d="M85.333,277.333h64c47.128,0 85.333,38.205 85.333,85.333v64c0,47.128 -38.205,85.333 -85.333,85.333h-64c-47.128,0.001 -85.333,-38.204 -85.333,-85.332v-64c0,-47.129 38.205,-85.334 85.333,-85.334z"></path><path d="M362.667,277.333h64c47.128,0 85.333,38.205 85.333,85.333v64c0,47.129 -38.205,85.334 -85.333,85.334h-64c-47.128,0 -85.333,-38.205 -85.333,-85.333v-64c-0.001,-47.129 38.204,-85.334 85.333,-85.334z"></path></g></g></g></svg>