<svg version="1.1" xmlns="http://www.w3.org/2000/svg" xmlns:xlink="http://www.w3.org/1999/xlink" width="512" height="512" viewBox="0,0,256,256"><g fill="#eabb59" fill-rule="nonzero" stroke="none" stroke-width="1" stroke-linecap="butt" stroke-linejoin="miter" stroke-miterlimit="10" stroke-dasharray="" stroke-dashoffset="0" font-family="none" font-weight="none" font-size="none" text-anchor="none" style="mix-blend-mode: normal"><g transform="translate(-0.16497,0) scale(10.66667,10.66667)"><path d="M23.297,9.034c-0.57,-0.657 -1.396,-1.034 -2.267,-1.034h-0.086c-0.499,-4.494 -4.319,-8 -8.944,-8c-4.625,0 -8.445,3.506 -8.944,8h-0.056c-0.87,0 -1.695,0.377 -2.266,1.034c-0.571,0.657 -0.827,1.528 -0.704,2.391l1.061,7.424c0.42,2.937 2.974,5.151 5.94,5.151h9.969c2.966,0 5.52,-2.215 5.94,-5.151l1.061,-7.424c0.123,-0.862 -0.134,-1.733 -0.704,-2.391zM12,2c3.52,0 6.441,2.613 6.928,6h-13.856c0.487,-3.387 3.408,-6 6.928,-6zM8,19c0,0.553 -0.447,1 -1,1c-0.553,0 -1,-0.447 -1,-1v-6c0,-0.553 0.447,-1 1,-1c0.553,0 1,0.447 1,1zM13,19c0,0.553 -0.447,1 -1,1c-0.553,0 -1,-0.447 -1,-1v-6c0,-0.553 0.447,-1 1,-1c0.553,0 1,0.447 1,1zM18,19c0,0.553 -0.447,1 -1,1c-0.553,0 -1,-0.447 -1,-1v-6c0,-0.553 0.447,-1 1,-1c0.553,0 1,0.447 1,1z"></path></g></g></svg>