<svg version="1.1" xmlns="http://www.w3.org/2000/svg" xmlns:xlink="http://www.w3.org/1999/xlink" width="512" height="512" viewBox="0,0,256,256"><g fill="#eabb59" fill-rule="nonzero" stroke="none" stroke-width="1" stroke-linecap="butt" stroke-linejoin="miter" stroke-miterlimit="10" stroke-dasharray="" stroke-dashoffset="0" font-family="none" font-weight="none" font-size="none" text-anchor="none" style="mix-blend-mode: normal"><g transform="translate(0.02749,0.01331) scale(10.66667,10.66667)"><path d="M17.994,2.286c-2.48745,-2.22226 -5.99996,-2.88655 -9.12714,-1.72614c-3.12719,1.16041 -5.35613,3.95518 -5.79186,7.26214c-0.3897,2.88761 0.65261,5.78391 2.793,7.761c1.31863,1.15635 2.09199,2.81262 2.132,4.566v0.161c0.0022,2.03702 1.65298,3.6878 3.69,3.69h0.62c2.03702,-0.0022 3.6878,-1.65298 3.69,-3.69v-0.549c0.0303,-1.55117 0.73584,-3.01194 1.932,-4c1.93907,-1.69829 3.05629,-4.14692 3.06815,-6.72453c0.01186,-2.57761 -1.08278,-5.03641 -3.00615,-6.75247zM12.31,22h-0.62c-0.9329,-0.0011 -1.6889,-0.7571 -1.69,-1.69c0,0 -0.007,-0.26 -0.008,-0.31h4.008v0.31c-0.0011,0.9329 -0.7571,1.6889 -1.69,1.69zM16.61,14.259c-1.13857,0.98754 -1.96083,2.28875 -2.364,3.741h-1.246v-7.184c1.19435,-0.42225 1.99475,-1.54921 2,-2.816c0,-0.55228 -0.44772,-1 -1,-1c-0.55228,0 -1,0.44772 -1,1c0,0.55228 -0.44772,1 -1,1c-0.55228,0 -1,-0.44772 -1,-1c0,-0.55228 -0.44772,-1 -1,-1c-0.55228,0 -1,0.44772 -1,1c0.00525,1.26679 0.80565,2.39375 2,2.816v7.184h-1.322c-0.45101,-1.49079 -1.29688,-2.83182 -2.448,-3.881c-1.99493,-1.85887 -2.72888,-4.707 -1.88079,-7.29851c0.84809,-2.5915 3.12386,-4.45468 5.83179,-4.77449c0.27493,-0.03069 0.55136,-0.04605 0.828,-0.046c1.71757,-0.00511 3.37568,0.62862 4.652,1.778c1.49629,1.33427 2.34797,3.24656 2.33879,5.25132c-0.00918,2.00476 -0.87834,3.90917 -2.38679,5.22968z"></path></g></g></svg>